<svg width="50" height="48" viewBox="0 0 50 48" fill="none" xmlns="http://www.w3.org/2000/svg">
<g clip-path="url(#clip0_141_10)">
<path d="M22.6996 8.47226C24.161 13.5151 22.7278 18.3632 19.4982 19.3006C16.2686 20.2381 12.464 16.9081 11.0016 11.8662C9.54018 6.82235 10.9734 1.97523 14.2021 1.03875C17.4336 0.101326 21.2382 3.43031 22.6996 8.4732V8.47226Z" fill="#00F060"/>
<path d="M11.2614 22.3529C13.5961 26.3351 13.3241 30.834 10.6525 32.4001C7.98092 33.9672 3.9213 32.0086 1.58847 28.0245C-0.747174 24.0423 -0.474274 19.5435 2.19827 17.9764C4.86892 16.4102 8.92666 18.3689 11.2614 22.352V22.3529Z" fill="#00F060"/>
<path d="M25.5133 24.4085C32.0742 24.4085 44.2531 38.692 40.3102 44.4756C36.3672 50.2592 29.5438 44.7513 25.5133 44.7513C21.4829 44.7513 14.6594 50.2592 10.7165 44.4756C6.77356 38.692 18.9524 24.4085 25.5133 24.4085Z" fill="#00F060"/>
<path d="M27.1253 8.47226C25.663 13.5151 27.0971 18.3632 30.3267 19.3006C33.5564 20.2381 37.361 16.9081 38.8233 11.8662C40.2848 6.82235 38.8516 1.97523 35.6229 1.03875C32.3923 0.101326 28.5868 3.43031 27.1253 8.4732V8.47226Z" fill="#00F060"/>
<path d="M38.8149 18.8084C35.9014 22.3887 35.4855 26.8772 37.888 28.8311C40.2895 30.7869 44.6004 29.4693 47.5119 25.8862C50.4263 22.3059 50.8413 17.8173 48.4379 15.8625C46.0373 13.9076 41.7283 15.2262 38.8149 18.8075V18.8084Z" fill="#00F060"/>
</g>
<defs>
<clipPath id="clip0_141_10">
<rect width="50" height="46.2406" fill="white" transform="translate(0 0.8797)"/>
</clipPath>
</defs>
</svg>
